<?xml version="1.0" encoding="UTF-8" standalone="no"?>
<!-- Created with Inkscape (http://www.inkscape.org/) -->

<svg
   xmlns:dc="http://purl.org/dc/elements/1.1/"
   xmlns:cc="http://creativecommons.org/ns#"
   xmlns:rdf="http://www.w3.org/1999/02/22-rdf-syntax-ns#"
   xmlns:svg="http://www.w3.org/2000/svg"
   xmlns="http://www.w3.org/2000/svg"
   xmlns:sodipodi="http://sodipodi.sourceforge.net/DTD/sodipodi-0.dtd"
   xmlns:inkscape="http://www.inkscape.org/namespaces/inkscape"
   width="1920"
   height="3000"
   viewBox="0 0 1920 3000"
   id="svg2"
   version="1.1"
   inkscape:version="0.91 r13725"
   enable-background="new"
   sodipodi:docname="sketch.svg">
  <defs
     id="defs4">
    <inkscape:perspective
       sodipodi:type="inkscape:persp3d"
       inkscape:vp_x="0 : 1500 : 1"
       inkscape:vp_y="0 : 1000 : 0"
       inkscape:vp_z="1920 : 1500 : 1"
       inkscape:persp3d-origin="960 : 1000 : 1"
       id="perspective5761" />
    <filter
       inkscape:collect="always"
       style="color-interpolation-filters:sRGB"
       id="filter4196">
      <feBlend
         inkscape:collect="always"
         mode="multiply"
         in2="BackgroundImage"
         id="feBlend4198" />
    </filter>
    <filter
       inkscape:collect="always"
       style="color-interpolation-filters:sRGB"
       id="filter5751"
       x="-0.1428"
       width="1.2856"
       y="-0.1428"
       height="1.2856">
      <feGaussianBlur
         inkscape:collect="always"
         stdDeviation="7.616"
         id="feGaussianBlur5753" />
    </filter>
  </defs>
  <sodipodi:namedview
     id="base"
     pagecolor="#ffffff"
     bordercolor="#666666"
     borderopacity="1.0"
     inkscape:pageopacity="0.0"
     inkscape:pageshadow="2"
     inkscape:zoom="1.2493442"
     inkscape:cx="506.17082"
     inkscape:cy="3998.9681"
     inkscape:document-units="px"
     inkscape:current-layer="layer4"
     showgrid="false"
     units="px"
     showguides="true"
     inkscape:guide-bbox="true"
     inkscape:window-width="1920"
     inkscape:window-height="1043"
     inkscape:window-x="1366"
     inkscape:window-y="0"
     inkscape:window-maximized="1">
    <sodipodi:guide
       position="552.90328,3213.0088"
       orientation="1,0"
       id="guide4529" />
    <sodipodi:guide
       position="614.79836,3916.7395"
       orientation="0,1"
       id="guide5956" />
  </sodipodi:namedview>
  <metadata
     id="metadata7">
    <rdf:RDF>
      <cc:Work
         rdf:about="">
        <dc:format>image/svg+xml</dc:format>
        <dc:type
           rdf:resource="http://purl.org/dc/dcmitype/StillImage" />
        <dc:title></dc:title>
      </cc:Work>
    </rdf:RDF>
  </metadata>
  <g
     inkscape:label="Camada 1"
     inkscape:groupmode="layer"
     id="layer1"
     transform="translate(0,1947.6378)"
     style="display:inline;filter:url(#filter4196)">
    <rect
       style="fill:#e6e6e6;stroke:none"
       id="rect4136"
       width="1170"
       height="670"
       x="375"
       y="-1836.4949" />
    <rect
       y="-1724.0857"
       x="1184.9989"
       height="532"
       width="360"
       id="rect4167"
       style="fill:#cccccc;stroke:none" />
    <rect
       style="fill:#cccccc;stroke:none"
       id="rect4169"
       width="360"
       height="532"
       x="780.37769"
       y="-1724.0857" />
    <g
       id="g4387"
       transform="translate(-0.81571031,0)">
      <rect
         y="-1724.0857"
         x="375.75644"
         height="532"
         width="360"
         id="rect4165"
         style="fill:#cccccc;stroke:none" />
      <rect
         style="fill:#b3b3b3;stroke:none"
         id="rect4194"
         width="360"
         height="300"
         x="375.75644"
         y="-1724.0857" />
      <text
         sodipodi:linespacing="125%"
         id="text4200"
         y="-1383.3278"
         x="397.24084"
         style="font-style:normal;font-weight:normal;font-size:40px;line-height:125%;font-family:sans-serif;letter-spacing:0px;word-spacing:0px;fill:#000000;fill-opacity:1;stroke:none;stroke-width:1px;stroke-linecap:butt;stroke-linejoin:miter;stroke-opacity:1"
         xml:space="preserve"><tspan
           style="font-size:26.25px"
           y="-1383.3278"
           x="397.24084"
           id="tspan4202"
           sodipodi:role="line">Titulo um pouco grande</tspan><tspan
           id="tspan4204"
           style="font-size:26.25px"
           y="-1350.5153"
           x="397.24084"
           sodipodi:role="line">para testar o layout </tspan></text>
      <text
         sodipodi:linespacing="125%"
         id="text4206"
         y="-1308.6705"
         x="396.01038"
         style="font-style:normal;font-weight:normal;font-size:17.5px;line-height:125%;font-family:sans-serif;letter-spacing:0px;word-spacing:0px;fill:#666666;fill-opacity:1;stroke:none;stroke-width:1px;stroke-linecap:butt;stroke-linejoin:miter;stroke-opacity:1"
         xml:space="preserve"><tspan
           style="font-style:normal;font-variant:normal;font-weight:bold;font-stretch:normal;font-family:sans-serif;-inkscape-font-specification:'sans-serif Bold';fill:#666666"
           y="-1308.6705"
           x="396.01038"
           id="tspan4208"
           sodipodi:role="line">05 de Dezembro de 2015</tspan></text>
      <text
         xml:space="preserve"
         style="font-style:normal;font-weight:normal;font-size:17.5px;line-height:125%;font-family:sans-serif;letter-spacing:0px;word-spacing:0px;fill:#666666;fill-opacity:1;stroke:none;stroke-width:1px;stroke-linecap:butt;stroke-linejoin:miter;stroke-opacity:1"
         x="396.01038"
         y="-1270.6705"
         id="text4210"
         sodipodi:linespacing="125%"><tspan
           sodipodi:role="line"
           id="tspan4212"
           x="396.01038"
           y="-1270.6705"
           style="fill:#666666">Texto Texto Texto Texto Texto Texto </tspan><tspan
           id="tspan4214"
           sodipodi:role="line"
           x="396.01038"
           y="-1248.7955"
           style="fill:#666666">Texto Texto Texto Texto Texto Texto </tspan><tspan
           id="tspan4216"
           sodipodi:role="line"
           x="396.01038"
           y="-1226.9205"
           style="fill:#666666">Texto Texto Texto Texto Texto Texto </tspan><tspan
           id="tspan4218"
           sodipodi:role="line"
           x="396.01038"
           y="-1205.0455"
           style="fill:#666666" /></text>
    </g>
    <g
       id="g4452"
       transform="translate(404.22131,0)">
      <rect
         style="fill:#cccccc;stroke:none"
         id="rect4454"
         width="360"
         height="532"
         x="375.75644"
         y="-1724.0857" />
      <rect
         y="-1724.0857"
         x="375.75644"
         height="300"
         width="360"
         id="rect4456"
         style="fill:#b3b3b3;stroke:none" />
      <text
         xml:space="preserve"
         style="font-style:normal;font-weight:normal;font-size:40px;line-height:125%;font-family:sans-serif;letter-spacing:0px;word-spacing:0px;fill:#000000;fill-opacity:1;stroke:none;stroke-width:1px;stroke-linecap:butt;stroke-linejoin:miter;stroke-opacity:1"
         x="397.24084"
         y="-1383.3278"
         id="text4458"
         sodipodi:linespacing="125%"><tspan
           sodipodi:role="line"
           id="tspan4460"
           x="397.24084"
           y="-1383.3278"
           style="font-size:26.25px">Titulo um pouco grande</tspan><tspan
           sodipodi:role="line"
           x="397.24084"
           y="-1350.5153"
           style="font-size:26.25px"
           id="tspan4462">para testar o layout </tspan></text>
      <text
         xml:space="preserve"
         style="font-style:normal;font-weight:normal;font-size:17.5px;line-height:125%;font-family:sans-serif;letter-spacing:0px;word-spacing:0px;fill:#666666;fill-opacity:1;stroke:none;stroke-width:1px;stroke-linecap:butt;stroke-linejoin:miter;stroke-opacity:1"
         x="396.01038"
         y="-1308.6705"
         id="text4464"
         sodipodi:linespacing="125%"><tspan
           sodipodi:role="line"
           id="tspan4466"
           x="396.01038"
           y="-1308.6705"
           style="font-style:normal;font-variant:normal;font-weight:bold;font-stretch:normal;font-family:sans-serif;-inkscape-font-specification:'sans-serif Bold';fill:#666666">05 de Dezembro de 2015</tspan></text>
      <text
         sodipodi:linespacing="125%"
         id="text4468"
         y="-1270.6705"
         x="396.01038"
         style="font-style:normal;font-weight:normal;font-size:17.5px;line-height:125%;font-family:sans-serif;letter-spacing:0px;word-spacing:0px;fill:#666666;fill-opacity:1;stroke:none;stroke-width:1px;stroke-linecap:butt;stroke-linejoin:miter;stroke-opacity:1"
         xml:space="preserve"><tspan
           style="fill:#666666"
           y="-1270.6705"
           x="396.01038"
           id="tspan4470"
           sodipodi:role="line">Texto Texto Texto Texto Texto Texto </tspan><tspan
           style="fill:#666666"
           y="-1248.7955"
           x="396.01038"
           sodipodi:role="line"
           id="tspan4472">Texto Texto Texto Texto Texto Texto </tspan><tspan
           style="fill:#666666"
           y="-1226.9205"
           x="396.01038"
           sodipodi:role="line"
           id="tspan4474">Texto Texto Texto Texto Texto Texto </tspan><tspan
           style="fill:#666666"
           y="-1205.0455"
           x="396.01038"
           sodipodi:role="line"
           id="tspan4476" /></text>
    </g>
    <g
       transform="translate(809.25846,0)"
       id="g4478">
      <rect
         y="-1724.0857"
         x="375.75644"
         height="532"
         width="360"
         id="rect4480"
         style="fill:#cccccc;stroke:none" />
      <rect
         style="fill:#b3b3b3;stroke:none"
         id="rect4482"
         width="360"
         height="300"
         x="375.75644"
         y="-1724.0857" />
      <text
         sodipodi:linespacing="125%"
         id="text4484"
         y="-1383.3278"
         x="397.24084"
         style="font-style:normal;font-weight:normal;font-size:40px;line-height:125%;font-family:sans-serif;letter-spacing:0px;word-spacing:0px;fill:#000000;fill-opacity:1;stroke:none;stroke-width:1px;stroke-linecap:butt;stroke-linejoin:miter;stroke-opacity:1"
         xml:space="preserve"><tspan
           style="font-size:26.25px"
           y="-1383.3278"
           x="397.24084"
           id="tspan4486"
           sodipodi:role="line">Titulo um pouco grande</tspan><tspan
           id="tspan4488"
           style="font-size:26.25px"
           y="-1350.5153"
           x="397.24084"
           sodipodi:role="line">para testar o layout </tspan></text>
      <text
         sodipodi:linespacing="125%"
         id="text4490"
         y="-1308.6705"
         x="396.01038"
         style="font-style:normal;font-weight:normal;font-size:17.5px;line-height:125%;font-family:sans-serif;letter-spacing:0px;word-spacing:0px;fill:#666666;fill-opacity:1;stroke:none;stroke-width:1px;stroke-linecap:butt;stroke-linejoin:miter;stroke-opacity:1"
         xml:space="preserve"><tspan
           style="font-style:normal;font-variant:normal;font-weight:bold;font-stretch:normal;font-family:sans-serif;-inkscape-font-specification:'sans-serif Bold';fill:#666666"
           y="-1308.6705"
           x="396.01038"
           id="tspan4492"
           sodipodi:role="line">05 de Dezembro de 2015</tspan></text>
      <text
         xml:space="preserve"
         style="font-style:normal;font-weight:normal;font-size:17.5px;line-height:125%;font-family:sans-serif;letter-spacing:0px;word-spacing:0px;fill:#666666;fill-opacity:1;stroke:none;stroke-width:1px;stroke-linecap:butt;stroke-linejoin:miter;stroke-opacity:1"
         x="396.01038"
         y="-1270.6705"
         id="text4494"
         sodipodi:linespacing="125%"><tspan
           sodipodi:role="line"
           id="tspan4496"
           x="396.01038"
           y="-1270.6705"
           style="fill:#666666">Texto Texto Texto Texto Texto Texto </tspan><tspan
           id="tspan4498"
           sodipodi:role="line"
           x="396.01038"
           y="-1248.7955"
           style="fill:#666666">Texto Texto Texto Texto Texto Texto </tspan><tspan
           id="tspan4500"
           sodipodi:role="line"
           x="396.01038"
           y="-1226.9205"
           style="fill:#666666">Texto Texto Texto Texto Texto Texto </tspan><tspan
           id="tspan4502"
           sodipodi:role="line"
           x="396.01038"
           y="-1205.0455"
           style="fill:#666666" /></text>
    </g>
    <rect
       style="display:inline;fill:#b3b3b3;stroke:none;filter:url(#filter4196)"
       id="rect4194-5"
       width="360"
       height="300"
       x="590.03052"
       y="-2557.436" />
    <rect
       style="fill:#e64a19;fill-opacity:1;stroke:none"
       id="rect4533"
       width="360"
       height="300"
       x="430.83295"
       y="-2996.939"
       inkscape:export-filename="/home/michel/github/gitpages/godot/assets/img/thumb_no.jpg"
       inkscape:export-xdpi="90"
       inkscape:export-ydpi="90" />
    <g
       id="g5755"
       transform="translate(-0.0353739,0)"
       inkscape:export-filename="/home/michel/github/gitpages/godot/assets/img/thumb_no.jpg"
       inkscape:export-xdpi="90"
       inkscape:export-ydpi="90">
      <circle
         style="opacity:0.4;fill:#000000;fill-opacity:1;stroke:none;filter:url(#filter5751)"
         id="circle4537"
         cx="610.83295"
         cy="-2846.939"
         r="64" />
      <circle
         r="64"
         cy="-2846.939"
         cx="610.83295"
         id="path4535"
         style="fill:#ffffff;fill-opacity:1;stroke:none" />
    </g>
  </g>
  <g
     inkscape:groupmode="layer"
     id="layer4"
     inkscape:label="Camada 2">
    <path
       style="opacity:1;fill:#4d4d4d;fill-opacity:1;stroke:none"
       d="m 610.83205,-911.45703 a 14.999997,14.999993 0 0 0 -1.06055,0.0381 14.999997,14.999993 0 0 0 -1.48828,0.18017 14.999997,14.999993 0 0 0 -1.46338,0.32813 14.999997,14.999993 0 0 0 -1.42236,0.47314 14.999997,14.999993 0 0 0 -1.36816,0.61231 14.999997,14.999993 0 0 0 -1.30079,0.74707 14.999997,14.999993 0 0 0 -1.22021,0.87158 14.999997,14.999993 0 0 0 -1.12646,0.99024 14.999997,14.999993 0 0 0 -1.02246,1.09569 14.999997,14.999993 0 0 0 -0.90675,1.19385 14.999997,14.999993 0 0 0 -0.78369,1.27881 14.999997,14.999993 0 0 0 -0.65185,1.35059 14.999997,14.999993 0 0 0 -0.51416,1.40771 14.999997,14.999993 0 0 0 -0.37061,1.45312 14.999997,14.999993 0 0 0 -0.22412,1.48243 14.999997,14.999993 0 0 0 -0.0762,1.49707 14.999997,14.999993 0 0 0 0.0381,1.062 14.999997,14.999993 0 0 0 0.18018,1.48829 14.999997,14.999993 0 0 0 0.32959,1.46191 14.999997,14.999993 0 0 0 0.47168,1.42383 14.999997,14.999993 0 0 0 0.61377,1.36816 14.999997,14.999993 0 0 0 0.74561,1.30078 14.999997,14.999993 0 0 0 0.87158,1.22022 14.999997,14.999993 0 0 0 0.99023,1.12646 14.999997,14.999993 0 0 0 1.09717,1.02099 14.999997,14.999993 0 0 0 1.19385,0.90821 14.999997,14.999993 0 0 0 1.27734,0.78369 14.999997,14.999993 0 0 0 1.35059,0.65185 14.999997,14.999993 0 0 0 1.40772,0.51417 14.999997,14.999993 0 0 0 1.45312,0.3706 14.999997,14.999993 0 0 0 1.48242,0.22412 14.999997,14.999993 0 0 0 1.49707,0.0747 14.999997,14.999993 0 0 0 1.06201,-0.0366 14.999997,14.999993 0 0 0 1.48828,-0.18164 14.999997,14.999993 0 0 0 1.46338,-0.32812 14.999997,14.999993 0 0 0 1.42236,-0.47315 14.999997,14.999993 0 0 0 1.36817,-0.6123 14.999997,14.999993 0 0 0 1.30078,-0.7456 14.999997,14.999993 0 0 0 1.22021,-0.87159 14.999997,14.999993 0 0 0 1.12647,-0.99024 14.999997,14.999993 0 0 0 1.021,-1.09716 14.999997,14.999993 0 0 0 0.90819,-1.19384 14.999997,14.999993 0 0 0 0.7837,-1.27735 14.999997,14.999993 0 0 0 0.65185,-1.35059 14.999997,14.999993 0 0 0 0.51416,-1.40918 14.999997,14.999993 0 0 0 0.3706,-1.45165 14.999997,14.999993 0 0 0 0.22413,-1.48242 14.999997,14.999993 0 0 0 0.0747,-1.49854 14.999997,14.999993 0 0 0 -0.0366,-1.06054 14.999997,14.999993 0 0 0 -0.18163,-1.48829 14.999997,14.999993 0 0 0 -0.32813,-1.46337 14.999997,14.999993 0 0 0 -0.47168,-1.42236 14.999997,14.999993 0 0 0 -0.61377,-1.36964 14.999997,14.999993 0 0 0 -0.74561,-1.29931 14.999997,14.999993 0 0 0 -0.87158,-1.22021 14.999997,14.999993 0 0 0 -0.99023,-1.12647 14.999997,14.999993 0 0 0 -1.09717,-1.02246 14.999997,14.999993 0 0 0 -1.19385,-0.90674 14.999997,14.999993 0 0 0 -1.27734,-0.78369 14.999997,14.999993 0 0 0 -1.35059,-0.65185 14.999997,14.999993 0 0 0 -1.40771,-0.51416 14.999997,14.999993 0 0 0 -1.45313,-0.37207 14.999997,14.999993 0 0 0 -1.48242,-0.22412 14.999997,14.999993 0 0 0 -1.49853,-0.0747 z"
       id="path5932"
       inkscape:connector-curvature="0"
       inkscape:export-filename="/home/michel/github/gitpages/godot/assets/img/thumb_no.jpg"
       inkscape:export-xdpi="90"
       inkscape:export-ydpi="90" />
    <path
       style="opacity:1;fill:#4d4d4d;fill-opacity:1;stroke:none"
       d="M 575.83203 -919.45703 A 5 5 0 0 0 575.47852 -919.44531 A 5 5 0 0 0 574.98242 -919.38281 A 5 5 0 0 0 574.49414 -919.27344 A 5 5 0 0 0 574.01953 -919.11523 A 5 5 0 0 0 573.56445 -918.91016 A 5 5 0 0 0 573.13086 -918.66211 A 5 5 0 0 0 572.72461 -918.37109 A 5 5 0 0 0 572.34766 -918.04102 A 5 5 0 0 0 572.00781 -917.67578 A 5 5 0 0 0 571.70508 -917.27734 A 5 5 0 0 0 571.44336 -916.85156 A 5 5 0 0 0 571.22656 -916.40234 A 5 5 0 0 0 571.05469 -915.93359 A 5 5 0 0 0 570.93164 -915.44922 A 5 5 0 0 0 570.85742 -914.95508 A 5 5 0 0 0 570.83203 -914.45508 L 570.83203 -878.45508 A 5 5 0 0 0 570.84375 -878.10156 A 5 5 0 0 0 570.9043 -877.60547 A 5 5 0 0 0 571.01367 -877.11719 A 5 5 0 0 0 571.17188 -876.64258 A 5 5 0 0 0 571.37695 -876.1875 A 5 5 0 0 0 571.625 -875.75391 A 5 5 0 0 0 571.91602 -875.34766 A 5 5 0 0 0 572.24609 -874.9707 A 5 5 0 0 0 572.61133 -874.63086 A 5 5 0 0 0 573.00977 -874.32812 A 5 5 0 0 0 573.43555 -874.06641 A 5 5 0 0 0 573.88477 -873.84961 A 5 5 0 0 0 574.35352 -873.67773 A 5 5 0 0 0 574.83789 -873.55469 A 5 5 0 0 0 575.33203 -873.48242 A 5 5 0 0 0 575.83203 -873.45703 L 645.83203 -873.45703 A 5 5 0 0 0 646.18555 -873.46875 A 5 5 0 0 0 646.68164 -873.5293 A 5 5 0 0 0 647.16992 -873.63867 A 5 5 0 0 0 647.64453 -873.79688 A 5 5 0 0 0 648.09961 -874.00195 A 5 5 0 0 0 648.5332 -874.25 A 5 5 0 0 0 648.93945 -874.54102 A 5 5 0 0 0 649.31641 -874.87109 A 5 5 0 0 0 649.65625 -875.23633 A 5 5 0 0 0 649.95898 -875.63477 A 5 5 0 0 0 650.2207 -876.06055 A 5 5 0 0 0 650.4375 -876.50977 A 5 5 0 0 0 650.60938 -876.97852 A 5 5 0 0 0 650.73242 -877.46289 A 5 5 0 0 0 650.80664 -877.95703 A 5 5 0 0 0 650.83203 -878.45703 L 650.83203 -914.45703 A 5 5 0 0 0 650.82031 -914.81055 A 5 5 0 0 0 650.76172 -915.30664 A 5 5 0 0 0 650.65234 -915.79492 A 5 5 0 0 0 650.49414 -916.26953 A 5 5 0 0 0 650.28906 -916.72461 A 5 5 0 0 0 650.04102 -917.1582 A 5 5 0 0 0 649.75 -917.56445 A 5 5 0 0 0 649.41992 -917.94141 A 5 5 0 0 0 649.05469 -918.28125 A 5 5 0 0 0 648.65625 -918.58398 A 5 5 0 0 0 648.23047 -918.8457 A 5 5 0 0 0 647.78125 -919.0625 A 5 5 0 0 0 647.3125 -919.23438 A 5 5 0 0 0 646.82812 -919.35742 A 5 5 0 0 0 646.33398 -919.43164 A 5 5 0 0 0 645.83398 -919.45703 L 575.83398 -919.45703 L 575.83203 -919.45703 z M 610.83203 -916.45703 A 20 20 0 0 1 612.83008 -916.35742 A 20 20 0 0 1 614.80664 -916.05859 A 20 20 0 0 1 616.74414 -915.5625 A 20 20 0 0 1 618.62109 -914.87695 A 20 20 0 0 1 620.42188 -914.00781 A 20 20 0 0 1 622.125 -912.96289 A 20 20 0 0 1 623.7168 -911.75391 A 20 20 0 0 1 625.17969 -910.39062 A 20 20 0 0 1 626.5 -908.88867 A 20 20 0 0 1 627.66211 -907.26172 A 20 20 0 0 1 628.65625 -905.5293 A 20 20 0 0 1 629.47461 -903.70312 A 20 20 0 0 1 630.10352 -901.80664 A 20 20 0 0 1 630.54102 -899.85547 A 20 20 0 0 1 630.7832 -897.87109 A 20 20 0 0 1 630.83203 -896.45703 A 20 20 0 0 1 630.73242 -894.45898 A 20 20 0 0 1 630.43359 -892.48242 A 20 20 0 0 1 629.93945 -890.54688 A 20 20 0 0 1 629.25391 -888.66797 A 20 20 0 0 1 628.38477 -886.86719 A 20 20 0 0 1 627.33984 -885.16406 A 20 20 0 0 1 626.12891 -883.57227 A 20 20 0 0 1 624.76758 -882.10938 A 20 20 0 0 1 623.26562 -880.78906 A 20 20 0 0 1 621.63867 -879.62695 A 20 20 0 0 1 619.9043 -878.63281 A 20 20 0 0 1 618.08008 -877.81641 A 20 20 0 0 1 616.18359 -877.18555 A 20 20 0 0 1 614.23242 -876.74805 A 20 20 0 0 1 612.24805 -876.50586 A 20 20 0 0 1 610.83203 -876.45703 A 20 20 0 0 1 608.83594 -876.55664 A 20 20 0 0 1 606.85938 -876.85547 A 20 20 0 0 1 604.92188 -877.34961 A 20 20 0 0 1 603.04492 -878.03516 A 20 20 0 0 1 601.24414 -878.9043 A 20 20 0 0 1 599.54102 -879.94922 A 20 20 0 0 1 597.94922 -881.16016 A 20 20 0 0 1 596.48633 -882.52148 A 20 20 0 0 1 595.16602 -884.02344 A 20 20 0 0 1 594.00391 -885.65039 A 20 20 0 0 1 593.00977 -887.38477 A 20 20 0 0 1 592.19141 -889.20898 A 20 20 0 0 1 591.5625 -891.10742 A 20 20 0 0 1 591.12305 -893.05664 A 20 20 0 0 1 590.88281 -895.04102 A 20 20 0 0 1 590.83203 -896.45703 A 20 20 0 0 1 590.93359 -898.45312 A 20 20 0 0 1 591.23242 -900.42969 A 20 20 0 0 1 591.72656 -902.36719 A 20 20 0 0 1 592.41211 -904.24414 A 20 20 0 0 1 593.28125 -906.04492 A 20 20 0 0 1 594.32617 -907.75 A 20 20 0 0 1 595.53516 -909.3418 A 20 20 0 0 1 596.89844 -910.80273 A 20 20 0 0 1 598.40039 -912.12305 A 20 20 0 0 1 600.02734 -913.28516 A 20 20 0 0 1 601.76172 -914.28125 A 20 20 0 0 1 603.58594 -915.09766 A 20 20 0 0 1 605.48242 -915.72852 A 20 20 0 0 1 607.43359 -916.16602 A 20 20 0 0 1 609.41797 -916.40625 A 20 20 0 0 1 610.83203 -916.45703 z M 578.5 -916 A 2.5 2.5 0 0 1 578.75 -915.98828 A 2.5 2.5 0 0 1 578.99609 -915.94922 A 2.5 2.5 0 0 1 579.23828 -915.88867 A 2.5 2.5 0 0 1 579.47266 -915.80273 A 2.5 2.5 0 0 1 579.69922 -915.69336 A 2.5 2.5 0 0 1 579.91211 -915.5625 A 2.5 2.5 0 0 1 580.11133 -915.41211 A 2.5 2.5 0 0 1 580.29297 -915.24219 A 2.5 2.5 0 0 1 580.45898 -915.05469 A 2.5 2.5 0 0 1 580.60352 -914.85156 A 2.5 2.5 0 0 1 580.72852 -914.63477 A 2.5 2.5 0 0 1 580.83008 -914.40625 A 2.5 2.5 0 0 1 580.9082 -914.16797 A 2.5 2.5 0 0 1 580.96289 -913.92578 A 2.5 2.5 0 0 1 580.99414 -913.67773 A 2.5 2.5 0 0 1 581 -913.5 A 2.5 2.5 0 0 1 580.98828 -913.25 A 2.5 2.5 0 0 1 580.94922 -913.00391 A 2.5 2.5 0 0 1 580.88867 -912.76172 A 2.5 2.5 0 0 1 580.80273 -912.52734 A 2.5 2.5 0 0 1 580.69336 -912.30078 A 2.5 2.5 0 0 1 580.5625 -912.08789 A 2.5 2.5 0 0 1 580.41211 -911.88867 A 2.5 2.5 0 0 1 580.24219 -911.70703 A 2.5 2.5 0 0 1 580.05469 -911.54102 A 2.5 2.5 0 0 1 579.85156 -911.39648 A 2.5 2.5 0 0 1 579.63477 -911.27148 A 2.5 2.5 0 0 1 579.40625 -911.16992 A 2.5 2.5 0 0 1 579.16797 -911.0918 A 2.5 2.5 0 0 1 578.92578 -911.03711 A 2.5 2.5 0 0 1 578.67773 -911.00586 A 2.5 2.5 0 0 1 578.5 -911 A 2.5 2.5 0 0 1 578.25 -911.01172 A 2.5 2.5 0 0 1 578.00391 -911.05078 A 2.5 2.5 0 0 1 577.76172 -911.11133 A 2.5 2.5 0 0 1 577.52734 -911.19727 A 2.5 2.5 0 0 1 577.30078 -911.30664 A 2.5 2.5 0 0 1 577.08789 -911.4375 A 2.5 2.5 0 0 1 576.88867 -911.58789 A 2.5 2.5 0 0 1 576.70703 -911.75781 A 2.5 2.5 0 0 1 576.54102 -911.94531 A 2.5 2.5 0 0 1 576.39648 -912.14844 A 2.5 2.5 0 0 1 576.27148 -912.36523 A 2.5 2.5 0 0 1 576.16992 -912.59375 A 2.5 2.5 0 0 1 576.0918 -912.83203 A 2.5 2.5 0 0 1 576.03711 -913.07422 A 2.5 2.5 0 0 1 576.00586 -913.32227 A 2.5 2.5 0 0 1 576 -913.5 A 2.5 2.5 0 0 1 576.01172 -913.75 A 2.5 2.5 0 0 1 576.05078 -913.99609 A 2.5 2.5 0 0 1 576.11133 -914.23828 A 2.5 2.5 0 0 1 576.19727 -914.47266 A 2.5 2.5 0 0 1 576.30664 -914.69922 A 2.5 2.5 0 0 1 576.4375 -914.91211 A 2.5 2.5 0 0 1 576.58789 -915.11133 A 2.5 2.5 0 0 1 576.75781 -915.29297 A 2.5 2.5 0 0 1 576.94531 -915.45898 A 2.5 2.5 0 0 1 577.14844 -915.60352 A 2.5 2.5 0 0 1 577.36523 -915.72852 A 2.5 2.5 0 0 1 577.59375 -915.83008 A 2.5 2.5 0 0 1 577.83203 -915.9082 A 2.5 2.5 0 0 1 578.07422 -915.96289 A 2.5 2.5 0 0 1 578.32227 -915.99414 A 2.5 2.5 0 0 1 578.5 -916 z "
       id="path5871"
       inkscape:export-filename="/home/michel/github/gitpages/godot/assets/img/thumb_no.jpg"
       inkscape:export-xdpi="90"
       inkscape:export-ydpi="90" />
    <circle
       style="opacity:1;fill:#cccccc;fill-opacity:1;stroke:none"
       id="circle5866"
       cx="590.83203"
       cy="-1109.9286"
       r="5" />
    <g
       id="g5897"
       transform="translate(101.31015,-223.04848)">
      <g
         id="g5902">
        <path
           sodipodi:type="star"
           style="opacity:1;fill:#4d4d4d;fill-opacity:1;stroke:none"
           id="path5888"
           sodipodi:sides="3"
           sodipodi:cx="631.08575"
           sodipodi:cy="-896.94971"
           sodipodi:r1="37.586754"
           sodipodi:r2="18.793377"
           sodipodi:arg1="0.52359878"
           sodipodi:arg2="1.5707963"
           inkscape:flatsided="false"
           inkscape:rounded="0"
           inkscape:randomized="0"
           d="m 663.63684,-878.15633 -32.55109,0 -32.55108,0 16.27554,-28.19007 16.27554,-28.19006 16.27555,28.19006 z"
           inkscape:transform-center-y="-9.3966883" />
        <path
           inkscape:transform-center-y="-6.61773"
           d="m 625.79027,-878.15632 -22.92449,0 -22.92449,0 11.46225,-19.85319 11.46224,-19.8532 11.46225,19.85319 z"
           inkscape:randomized="0"
           inkscape:rounded="0"
           inkscape:flatsided="false"
           sodipodi:arg2="1.5707963"
           sodipodi:arg1="0.52359878"
           sodipodi:r2="13.23546"
           sodipodi:r1="26.470921"
           sodipodi:cy="-891.39178"
           sodipodi:cx="602.86578"
           sodipodi:sides="3"
           id="path5890"
           style="opacity:1;fill:#4d4d4d;fill-opacity:1;stroke:none"
           sodipodi:type="star" />
        <circle
           r="5"
           style="opacity:1;fill:#4d4d4d;fill-opacity:1;stroke:none"
           id="path5895"
           cx="591.31635"
           cy="-933.45459" />
      </g>
    </g>
    <path
       style="opacity:1;fill:#4d4d4d;fill-opacity:1;stroke:none"
       d="m 592.7832,-926.7168 a 2.5,2.5 0 0 0 -0.17773,0.006 2.5,2.5 0 0 0 -0.24805,0.0312 2.5,2.5 0 0 0 -0.24219,0.0547 2.5,2.5 0 0 0 -0.23828,0.0781 2.5,2.5 0 0 0 -0.22851,0.10157 2.5,2.5 0 0 0 -0.2168,0.125 2.5,2.5 0 0 0 -0.20312,0.14453 2.5,2.5 0 0 0 -0.1875,0.16601 2.5,2.5 0 0 0 -0.16993,0.18165 2.5,2.5 0 0 0 -0.15039,0.19921 2.5,2.5 0 0 0 -0.13086,0.21289 2.5,2.5 0 0 0 -0.10937,0.22657 2.5,2.5 0 0 0 -0.0859,0.23437 2.5,2.5 0 0 0 -0.0606,0.24219 2.5,2.5 0 0 0 -0.0391,0.24609 2.5,2.5 0 0 0 -0.0117,0.25 l 0,5.23242 40,0 0,-5.23242 a 2.5,2.5 0 0 0 -0.006,-0.17773 2.5,2.5 0 0 0 -0.0312,-0.24805 2.5,2.5 0 0 0 -0.0547,-0.24219 2.5,2.5 0 0 0 -0.0781,-0.23828 2.5,2.5 0 0 0 -0.10156,-0.22851 2.5,2.5 0 0 0 -0.125,-0.2168 2.5,2.5 0 0 0 -0.14453,-0.20312 2.5,2.5 0 0 0 -0.16602,-0.1875 2.5,2.5 0 0 0 -0.18164,-0.16993 2.5,2.5 0 0 0 -0.19922,-0.15039 2.5,2.5 0 0 0 -0.21289,-0.13086 2.5,2.5 0 0 0 -0.22656,-0.10937 2.5,2.5 0 0 0 -0.23438,-0.0859 2.5,2.5 0 0 0 -0.24218,-0.0606 2.5,2.5 0 0 0 -0.2461,-0.0391 2.5,2.5 0 0 0 -0.25,-0.0117 l -35,0 z"
       id="path5918"
       inkscape:connector-curvature="0"
       inkscape:export-filename="/home/michel/github/gitpages/godot/assets/img/thumb_no.jpg"
       inkscape:export-xdpi="90"
       inkscape:export-ydpi="90" />
    <circle
       cy="-1107.4286"
       cx="598.51971"
       id="circle5909"
       style="opacity:1;fill:#cccccc;fill-opacity:1;stroke:none"
       r="2.5" />
    <circle
       cy="-1125.9652"
       cx="595.26605"
       id="circle5927"
       style="opacity:1;fill:#cccccc;fill-opacity:1;stroke:none"
       r="10" />
    <path
       style="opacity:1;fill:#4d4d4d;fill-opacity:1;stroke:none"
       d="m 580.0002,-922.0001 a 0.99999478,0.99999252 0 0 0 -0.0703,0.002 0.99999478,0.99999252 0 0 0 -0.0996,0.0117 0.99999478,0.99999252 0 0 0 -0.0977,0.0234 0.99999478,0.99999252 0 0 0 -0.0937,0.0312 0.99999478,0.99999252 0 0 0 -0.0918,0.0391 0.99999478,0.99999252 0 0 0 -0.0879,0.0508 0.99999478,0.99999252 0 0 0 -0.0801,0.0586 0.99999478,0.99999252 0 0 0 -0.0762,0.0644 0.99999478,0.99999252 0 0 0 0,0.002 0.99999478,0.99999252 0 0 0 -0.0664,0.0723 0.99999478,0.99999252 0 0 0 -0.0606,0.0801 0.99999478,0.99999252 0 0 0 -0.0527,0.084 0.99999478,0.99999252 0 0 0 -0.043,0.0899 0.99999478,0.99999252 0 0 0 0,0.002 0.99999478,0.99999252 0 0 0 -0.0352,0.0937 0.99999478,0.99999252 0 0 0 -0.0234,0.0957 0.99999478,0.99999252 0 0 0 -0.0156,0.0996 A 0.99999478,0.99999252 0 0 0 579,-921 l 0,5 6,0 0,-5 a 0.99999478,0.99999252 0 0 0 -0.002,-0.0703 0.99999478,0.99999252 0 0 0 -0.0117,-0.0996 0.99999478,0.99999252 0 0 0 -0.0234,-0.0977 0.99999478,0.99999252 0 0 0 -0.0312,-0.0937 0.99999478,0.99999252 0 0 0 -0.0391,-0.0918 0.99999478,0.99999252 0 0 0 -0.0508,-0.0859 0.99999478,0.99999252 0 0 0 0,-0.002 0.99999478,0.99999252 0 0 0 -0.0586,-0.0801 0.99999478,0.99999252 0 0 0 -0.0664,-0.0742 0.99999478,0.99999252 0 0 0 0,-0.002 0.99999478,0.99999252 0 0 0 -0.0723,-0.0664 0.99999478,0.99999252 0 0 0 -0.0801,-0.0606 0.99999478,0.99999252 0 0 0 -0.084,-0.0527 0.99999478,0.99999252 0 0 0 -0.0899,-0.043 0.99999478,0.99999252 0 0 0 -0.002,0 0.99999478,0.99999252 0 0 0 -0.0937,-0.0352 0.99999478,0.99999252 0 0 0 -0.0957,-0.0234 0.99999478,0.99999252 0 0 0 -0.0996,-0.0156 0.99999478,0.99999252 0 0 0 -0.0996,-0.006 l -4,0 z"
       id="path5968"
       inkscape:connector-curvature="0"
       inkscape:export-filename="/home/michel/github/gitpages/godot/assets/img/thumb_no.jpg"
       inkscape:export-xdpi="90"
       inkscape:export-ydpi="90" />
  </g>
  <g
     inkscape:groupmode="layer"
     id="layer3"
     inkscape:label="post"
     style="display:inline"
     sodipodi:insensitive="true" />
  <g
     inkscape:groupmode="layer"
     id="layer2"
     inkscape:label="html"
     sodipodi:insensitive="true">
    <text
       xml:space="preserve"
       style="font-style:normal;font-weight:normal;font-size:40px;line-height:125%;font-family:sans-serif;letter-spacing:0px;word-spacing:0px;fill:#000000;fill-opacity:1;stroke:none;stroke-width:1px;stroke-linecap:butt;stroke-linejoin:miter;stroke-opacity:1"
       x="342.87073"
       y="91.067513"
       id="text4138"
       sodipodi:linespacing="125%"><tspan
         sodipodi:role="line"
         id="tspan4140"
         x="342.87073"
         y="91.067513"
         style="font-size:22.5px">&lt;div class=&quot;container&quot;&gt;</tspan></text>
    <text
       sodipodi:linespacing="125%"
       id="text4161"
       y="810.56"
       x="346.91135"
       style="font-style:normal;font-weight:normal;font-size:40px;line-height:125%;font-family:sans-serif;letter-spacing:0px;word-spacing:0px;fill:#000000;fill-opacity:1;stroke:none;stroke-width:1px;stroke-linecap:butt;stroke-linejoin:miter;stroke-opacity:1"
       xml:space="preserve"><tspan
         style="font-size:22.5px"
         y="810.56"
         x="346.91135"
         id="tspan4163"
         sodipodi:role="line">&lt;/div&gt;</tspan></text>
    <text
       xml:space="preserve"
       style="font-style:normal;font-weight:normal;font-size:40px;line-height:125%;font-family:sans-serif;letter-spacing:0px;word-spacing:0px;display:inline;fill:#000000;fill-opacity:1;stroke:none;stroke-width:1px;stroke-linecap:butt;stroke-linejoin:miter;stroke-opacity:1"
       x="371.39609"
       y="183.84689"
       id="text4171"
       sodipodi:linespacing="125%"><tspan
         sodipodi:role="line"
         id="tspan4173"
         x="371.39609"
         y="183.84689">Headline</tspan></text>
    <text
       xml:space="preserve"
       style="font-style:normal;font-weight:normal;font-size:17.5px;line-height:125%;font-family:sans-serif;letter-spacing:0px;word-spacing:0px;fill:#000000;fill-opacity:1;stroke:none;stroke-width:1px;stroke-linecap:butt;stroke-linejoin:miter;stroke-opacity:1"
       x="376.59232"
       y="123.95376"
       id="text4504"
       sodipodi:linespacing="125%"><tspan
         sodipodi:role="line"
         id="tspan4506"
         x="376.59232"
         y="123.95376">&lt;section class=&quot;row&quot;&gt;</tspan></text>
    <text
       sodipodi:linespacing="125%"
       id="text4508"
       y="775.77606"
       x="374.76263"
       style="font-style:normal;font-weight:normal;font-size:17.5px;line-height:125%;font-family:sans-serif;letter-spacing:0px;word-spacing:0px;fill:#000000;fill-opacity:1;stroke:none;stroke-width:1px;stroke-linecap:butt;stroke-linejoin:miter;stroke-opacity:1"
       xml:space="preserve"><tspan
         y="775.77606"
         x="374.76263"
         id="tspan4510"
         sodipodi:role="line">&lt;/section&gt;</tspan></text>
  </g>
</svg>
